# 3ds Max Wavefront OBJ Exporter v0.97b - (c)2007 guruware
# File Created: 16.10.2019 15:44:18

mtllib Tree 4.mtl

#
# object Box001
#

v  -10.0000 0.0000 10.0000
v  -10.0000 0.0000 -10.0000
v  10.0000 0.0000 -10.0000
v  10.0000 0.0000 10.0000
v  -10.0000 250.0000 10.0000
v  10.0000 250.0000 10.0000
v  10.0000 250.0000 -10.0000
v  -10.0000 250.0000 -10.0000
# 8 vertices

vn -0.5774 -0.5774 0.5774
vn -0.5774 -0.5774 -0.5774
vn 0.5774 -0.5774 -0.5774
vn 0.5774 -0.5774 0.5774
vn -0.5774 0.5774 0.5774
vn 0.5774 0.5774 0.5774
vn 0.5774 0.5774 -0.5774
vn -0.5774 0.5774 -0.5774
# 8 vertex normals

vt 1.0000 0.0000 0.0000
vt 1.0000 1.0000 0.0000
vt 0.0000 1.0000 0.0000
vt 0.0000 0.0000 0.0000
# 4 texture coords

o Box001
g Box001
usemtl wire_184228153
s 2
f 1/1/1 2/2/2 3/3/3 4/4/4 
s 4
f 5/4/5 6/1/6 7/2/7 8/3/8 
s 8
f 1/4/1 4/1/4 6/2/6 5/3/5 
s 16
f 4/4/4 3/1/3 7/2/7 6/3/6 
s 32
f 3/4/3 2/1/2 8/2/8 7/3/7 
s 64
f 2/4/2 1/1/1 5/2/5 8/3/8 
# 6 polygons

#
# object Box002
#

v  -75.0000 236.1179 75.0000
v  -75.0000 236.1179 25.0000
v  -25.0000 236.1179 25.0000
v  -25.0000 236.1179 75.0000
v  25.0000 236.1179 25.0000
v  25.0000 236.1179 75.0000
v  75.0000 236.1179 25.0000
v  75.0000 236.1179 75.0000
v  -75.0000 236.1179 -25.0000
v  -25.0000 236.1179 -25.0000
v  25.0000 236.1179 -25.0000
v  75.0000 236.1179 -25.0000
v  -75.0000 236.1179 -75.0000
v  -25.0000 236.1179 -75.0000
v  25.0000 236.1179 -75.0000
v  75.0000 236.1179 -75.0000
v  -75.0000 386.1179 75.0000
v  -25.0000 386.1179 75.0000
v  -25.0000 386.1179 25.0000
v  -75.0000 386.1179 25.0000
v  25.0000 386.1179 75.0000
v  25.0000 386.1179 25.0000
v  75.0000 386.1179 75.0000
v  75.0000 386.1179 25.0000
v  -25.0000 386.1179 -25.0000
v  -75.0000 386.1179 -25.0000
v  25.0000 386.1179 -25.0000
v  75.0000 386.1179 -25.0000
v  -25.0000 386.1179 -75.0000
v  -75.0000 386.1179 -75.0000
v  25.0000 386.1179 -75.0000
v  75.0000 386.1179 -75.0000
v  -25.0000 286.1179 75.0000
v  -75.0000 286.1179 75.0000
v  25.0000 286.1179 75.0000
v  75.0000 286.1179 75.0000
v  -25.0000 336.1179 75.0000
v  -75.0000 336.1179 75.0000
v  25.0000 336.1179 75.0000
v  75.0000 336.1179 75.0000
v  75.0000 286.1179 25.0000
v  75.0000 286.1179 -25.0000
v  75.0000 286.1179 -75.0000
v  75.0000 336.1179 25.0000
v  75.0000 336.1179 -25.0000
v  75.0000 336.1179 -75.0000
v  25.0000 286.1179 -75.0000
v  -25.0000 286.1179 -75.0000
v  -75.0000 286.1179 -75.0000
v  25.0000 336.1179 -75.0000
v  -25.0000 336.1179 -75.0000
v  -75.0000 336.1179 -75.0000
v  -75.0000 286.1179 -25.0000
v  -75.0000 286.1179 25.0000
v  -75.0000 336.1179 -25.0000
v  -75.0000 336.1179 25.0000
# 56 vertices

vn -0.5774 -0.5774 0.5774
vn -0.7071 -0.7071 -0.0000
vn 0.0000 -1.0000 -0.0000
vn 0.0000 -0.7071 0.7071
vn 0.7071 -0.7071 -0.0000
vn 0.5774 -0.5774 0.5774
vn -0.5774 -0.5774 -0.5774
vn 0.0000 -0.7071 -0.7071
vn 0.5774 -0.5774 -0.5774
vn -0.5774 0.5774 0.5774
vn 0.0000 0.7071 0.7071
vn 0.0000 1.0000 -0.0000
vn -0.7071 0.7071 -0.0000
vn 0.5774 0.5774 0.5774
vn 0.7071 0.7071 -0.0000
vn 0.0000 0.7071 -0.7071
vn -0.5774 0.5774 -0.5774
vn 0.5774 0.5774 -0.5774
vn 0.0000 0.0000 1.0000
vn -0.7071 0.0000 0.7071
vn 0.7071 0.0000 0.7071
vn 1.0000 0.0000 -0.0000
vn 0.7071 0.0000 -0.7071
vn 0.0000 0.0000 -1.0000
vn -0.7071 0.0000 -0.7071
vn -1.0000 0.0000 -0.0000
# 26 vertex normals

vt 1.0000 0.0000 0.0000
vt 1.0000 0.3333 0.0000
vt 0.6667 0.3333 0.0000
vt 0.6667 0.0000 0.0000
vt 0.3333 0.3333 0.0000
vt 0.3333 0.0000 0.0000
vt 0.0000 0.3333 0.0000
vt 0.0000 0.0000 0.0000
vt 1.0000 0.6667 0.0000
vt 0.6667 0.6667 0.0000
vt 0.3333 0.6667 0.0000
vt 0.0000 0.6667 0.0000
vt 1.0000 1.0000 0.0000
vt 0.6667 1.0000 0.0000
vt 0.3333 1.0000 0.0000
vt 0.0000 1.0000 0.0000
# 16 texture coords

o Box002
g Box002
usemtl wire_153228153
s 2
f 9/5/9 10/6/10 11/7/11 12/8/12 
f 12/8/12 11/7/11 13/9/11 14/10/12 
f 14/10/12 13/9/11 15/11/13 16/12/14 
f 10/6/10 17/13/10 18/14/11 11/7/11 
f 11/7/11 18/14/11 19/15/11 13/9/11 
f 13/9/11 19/15/11 20/16/13 15/11/13 
f 17/13/10 21/17/15 22/18/16 18/14/11 
f 18/14/11 22/18/16 23/19/16 19/15/11 
f 19/15/11 23/19/16 24/20/17 20/16/13 
s 4
f 25/12/18 26/10/19 27/9/20 28/11/21 
f 26/10/19 29/8/19 30/7/20 27/9/20 
f 29/8/19 31/5/22 32/6/23 30/7/20 
f 28/11/21 27/9/20 33/15/20 34/16/21 
f 27/9/20 30/7/20 35/14/20 33/15/20 
f 30/7/20 32/6/23 36/13/23 35/14/20 
f 34/16/21 33/15/20 37/19/24 38/20/25 
f 33/15/20 35/14/20 39/18/24 37/19/24 
f 35/14/20 36/13/23 40/17/26 39/18/24 
s 8
f 9/12/9 12/10/12 41/9/27 42/11/28 
f 12/10/12 14/8/12 43/7/27 41/9/27 
f 14/8/12 16/5/14 44/6/29 43/7/27 
f 42/11/28 41/9/27 45/15/27 46/16/28 
f 41/9/27 43/7/27 47/14/27 45/15/27 
f 43/7/27 44/6/29 48/13/29 47/14/27 
f 46/16/28 45/15/27 26/19/19 25/20/18 
f 45/15/27 47/14/27 29/18/19 26/19/19 
f 47/14/27 48/13/29 31/17/22 29/18/19 
s 16
f 16/12/14 15/10/13 49/9/30 44/11/29 
f 15/10/13 20/8/13 50/7/30 49/9/30 
f 20/8/13 24/5/17 51/6/31 50/7/30 
f 44/11/29 49/9/30 52/15/30 48/16/29 
f 49/9/30 50/7/30 53/14/30 52/15/30 
f 50/7/30 51/6/31 54/13/31 53/14/30 
f 48/16/29 52/15/30 32/19/23 31/20/22 
f 52/15/30 53/14/30 36/18/23 32/19/23 
f 53/14/30 54/13/31 40/17/26 36/18/23 
s 32
f 24/12/17 23/10/16 55/9/32 51/11/31 
f 23/10/16 22/8/16 56/7/32 55/9/32 
f 22/8/16 21/5/15 57/6/33 56/7/32 
f 51/11/31 55/9/32 58/15/32 54/16/31 
f 55/9/32 56/7/32 59/14/32 58/15/32 
f 56/7/32 57/6/33 60/13/33 59/14/32 
f 54/16/31 58/15/32 39/19/24 40/20/26 
f 58/15/32 59/14/32 37/18/24 39/19/24 
f 59/14/32 60/13/33 38/17/25 37/18/24 
s 64
f 21/12/15 17/10/10 61/9/34 57/11/33 
f 17/10/10 10/8/10 62/7/34 61/9/34 
f 10/8/10 9/5/9 42/6/28 62/7/34 
f 57/11/33 61/9/34 63/15/34 60/16/33 
f 61/9/34 62/7/34 64/14/34 63/15/34 
f 62/7/34 42/6/28 46/13/28 64/14/34 
f 60/16/33 63/15/34 34/19/21 38/20/25 
f 63/15/34 64/14/34 28/18/21 34/19/21 
f 64/14/34 46/13/28 25/17/18 28/18/21 
# 54 polygons

#
# object Box004
#

v  -107.5843 207.6772 107.3336
v  -107.5843 207.6772 74.0003
v  -74.2509 207.6772 74.0003
v  -74.2509 207.6772 107.3336
v  -40.9176 207.6772 74.0003
v  -40.9176 207.6772 107.3336
v  -7.5843 207.6772 74.0003
v  -7.5843 207.6772 107.3336
v  -107.5843 207.6772 40.6669
v  -74.2509 207.6772 40.6669
v  -40.9176 207.6772 40.6669
v  -7.5843 207.6772 40.6669
v  -107.5843 207.6772 7.3336
v  -74.2509 207.6772 7.3336
v  -40.9176 207.6772 7.3336
v  -7.5843 207.6772 7.3336
v  -107.5843 307.6772 107.3336
v  -74.2509 307.6772 107.3336
v  -74.2509 307.6772 74.0003
v  -107.5843 307.6772 74.0003
v  -40.9176 307.6772 107.3336
v  -40.9176 307.6772 74.0003
v  -7.5843 307.6772 107.3336
v  -7.5843 307.6772 74.0003
v  -74.2509 307.6772 40.6669
v  -107.5843 307.6772 40.6669
v  -40.9176 307.6772 40.6669
v  -7.5843 307.6772 40.6669
v  -74.2509 307.6772 7.3336
v  -107.5843 307.6772 7.3336
v  -40.9176 307.6772 7.3336
v  -7.5843 307.6772 7.3336
v  -74.2509 241.0105 107.3336
v  -107.5843 241.0105 107.3336
v  -40.9176 241.0105 107.3336
v  -7.5843 241.0105 107.3336
v  -74.2509 274.3438 107.3336
v  -107.5843 274.3438 107.3336
v  -40.9176 274.3438 107.3336
v  -7.5843 274.3438 107.3336
v  -7.5843 241.0105 74.0003
v  -7.5843 241.0105 40.6669
v  -7.5843 241.0105 7.3336
v  -7.5843 274.3438 74.0003
v  -7.5843 274.3438 40.6669
v  -7.5843 274.3438 7.3336
v  -40.9176 241.0105 7.3336
v  -74.2509 241.0105 7.3336
v  -107.5843 241.0105 7.3336
v  -40.9176 274.3438 7.3336
v  -74.2509 274.3438 7.3336
v  -107.5843 274.3438 7.3336
v  -107.5843 241.0105 40.6669
v  -107.5843 241.0105 74.0003
v  -107.5843 274.3438 40.6669
v  -107.5843 274.3438 74.0003
# 56 vertices

vn -0.5774 -0.5774 0.5774
vn -0.7071 -0.7071 -0.0000
vn 0.0000 -1.0000 -0.0000
vn 0.0000 -0.7071 0.7071
vn 0.7071 -0.7071 -0.0000
vn 0.5774 -0.5774 0.5774
vn -0.5774 -0.5774 -0.5774
vn 0.0000 -0.7071 -0.7071
vn 0.5774 -0.5774 -0.5774
vn -0.5774 0.5774 0.5774
vn 0.0000 0.7071 0.7071
vn 0.0000 1.0000 -0.0000
vn -0.7071 0.7071 -0.0000
vn 0.5774 0.5774 0.5774
vn 0.7071 0.7071 -0.0000
vn 0.0000 0.7071 -0.7071
vn -0.5774 0.5774 -0.5774
vn 0.5774 0.5774 -0.5774
vn 0.0000 0.0000 1.0000
vn -0.7071 0.0000 0.7071
vn 0.7071 -0.0000 0.7071
vn 0.7071 0.0000 0.7071
vn 1.0000 -0.0000 -0.0000
vn 0.7071 -0.0000 -0.7071
vn 1.0000 0.0000 -0.0000
vn 0.7071 0.0000 -0.7071
vn 0.0000 -0.0000 -1.0000
vn -0.7071 -0.0000 -0.7071
vn 0.0000 0.0000 -1.0000
vn -0.7071 0.0000 -0.7071
vn -1.0000 0.0000 -0.0000
# 31 vertex normals

vt 1.0000 0.0000 0.0000
vt 1.0000 0.3333 0.0000
vt 0.6667 0.3333 0.0000
vt 0.6667 0.0000 0.0000
vt 0.3333 0.3333 0.0000
vt 0.3333 0.0000 0.0000
vt 0.0000 0.3333 0.0000
vt 0.0000 0.0000 0.0000
vt 1.0000 0.6667 0.0000
vt 0.6667 0.6667 0.0000
vt 0.3333 0.6667 0.0000
vt 0.0000 0.6667 0.0000
vt 1.0000 1.0000 0.0000
vt 0.6667 1.0000 0.0000
vt 0.3333 1.0000 0.0000
vt 0.0000 1.0000 0.0000
# 16 texture coords

o Box004
g Box004
usemtl wire_228184153
s 2
f 65/21/35 66/22/36 67/23/37 68/24/38 
f 68/24/38 67/23/37 69/25/37 70/26/38 
f 70/26/38 69/25/37 71/27/39 72/28/40 
f 66/22/36 73/29/36 74/30/37 67/23/37 
f 67/23/37 74/30/37 75/31/37 69/25/37 
f 69/25/37 75/31/37 76/32/39 71/27/39 
f 73/29/36 77/33/41 78/34/42 74/30/37 
f 74/30/37 78/34/42 79/35/42 75/31/37 
f 75/31/37 79/35/42 80/36/43 76/32/39 
s 4
f 81/28/44 82/26/45 83/25/46 84/27/47 
f 82/26/45 85/24/45 86/23/46 83/25/46 
f 85/24/45 87/21/48 88/22/49 86/23/46 
f 84/27/47 83/25/46 89/31/46 90/32/47 
f 83/25/46 86/23/46 91/30/46 89/31/46 
f 86/23/46 88/22/49 92/29/49 91/30/46 
f 90/32/47 89/31/46 93/35/50 94/36/51 
f 89/31/46 91/30/46 95/34/50 93/35/50 
f 91/30/46 92/29/49 96/33/52 95/34/50 
s 8
f 65/28/35 68/26/38 97/25/53 98/27/54 
f 68/26/38 70/24/38 99/23/53 97/25/53 
f 70/24/38 72/21/40 100/22/55 99/23/53 
f 98/27/54 97/25/53 101/31/53 102/32/54 
f 97/25/53 99/23/53 103/30/53 101/31/53 
f 99/23/53 100/22/55 104/29/56 103/30/53 
f 102/32/54 101/31/53 82/35/45 81/36/44 
f 101/31/53 103/30/53 85/34/45 82/35/45 
f 103/30/53 104/29/56 87/33/48 85/34/45 
s 16
f 72/28/40 71/26/39 105/25/57 100/27/55 
f 71/26/39 76/24/39 106/23/57 105/25/57 
f 76/24/39 80/21/43 107/22/58 106/23/57 
f 100/27/55 105/25/57 108/31/59 104/32/56 
f 105/25/57 106/23/57 109/30/59 108/31/59 
f 106/23/57 107/22/58 110/29/60 109/30/59 
f 104/32/56 108/31/59 88/35/49 87/36/48 
f 108/31/59 109/30/59 92/34/49 88/35/49 
f 109/30/59 110/29/60 96/33/52 92/34/49 
s 32
f 80/28/43 79/26/42 111/25/61 107/27/58 
f 79/26/42 78/24/42 112/23/61 111/25/61 
f 78/24/42 77/21/41 113/22/62 112/23/61 
f 107/27/58 111/25/61 114/31/63 110/32/60 
f 111/25/61 112/23/61 115/30/63 114/31/63 
f 112/23/61 113/22/62 116/29/64 115/30/63 
f 110/32/60 114/31/63 95/35/50 96/36/52 
f 114/31/63 115/30/63 93/34/50 95/35/50 
f 115/30/63 116/29/64 94/33/51 93/34/50 
s 64
f 77/28/41 73/26/36 117/25/65 113/27/62 
f 73/26/36 66/24/36 118/23/65 117/25/65 
f 66/24/36 65/21/35 98/22/54 118/23/65 
f 113/27/62 117/25/65 119/31/65 116/32/64 
f 117/25/65 118/23/65 120/30/65 119/31/65 
f 118/23/65 98/22/54 102/29/54 120/30/65 
f 116/32/64 119/31/65 90/35/47 94/36/51 
f 119/31/65 120/30/65 84/34/47 90/35/47 
f 120/30/65 102/29/54 81/33/44 84/34/47 
# 54 polygons

