# 3ds Max Wavefront OBJ Exporter v0.97b - (c)2007 guruware
# File Created: 16.10.2019 15:42:34

mtllib Tree 3.mtl

#
# object Box001
#

v  -10.0000 0.0000 10.0000
v  -10.0000 0.0000 -10.0000
v  10.0000 0.0000 -10.0000
v  10.0000 0.0000 10.0000
v  -10.0000 250.0000 10.0000
v  10.0000 250.0000 10.0000
v  10.0000 250.0000 -10.0000
v  -10.0000 250.0000 -10.0000
# 8 vertices

vn -0.5774 -0.5774 0.5774
vn -0.5774 -0.5774 -0.5774
vn 0.5774 -0.5774 -0.5774
vn 0.5774 -0.5774 0.5774
vn -0.5774 0.5774 0.5774
vn 0.5774 0.5774 0.5774
vn 0.5774 0.5774 -0.5774
vn -0.5774 0.5774 -0.5774
# 8 vertex normals

vt 1.0000 0.0000 0.0000
vt 1.0000 1.0000 0.0000
vt 0.0000 1.0000 0.0000
vt 0.0000 0.0000 0.0000
# 4 texture coords

o Box001
g Box001
usemtl wire_184228153
s 2
f 1/1/1 2/2/2 3/3/3 4/4/4 
s 4
f 5/4/5 6/1/6 7/2/7 8/3/8 
s 8
f 1/4/1 4/1/4 6/2/6 5/3/5 
s 16
f 4/4/4 3/1/3 7/2/7 6/3/6 
s 32
f 3/4/3 2/1/2 8/2/8 7/3/7 
s 64
f 2/4/2 1/1/1 5/2/5 8/3/8 
# 6 polygons

#
# object Box002
#

v  -75.0000 310.0261 75.0000
v  -75.0000 310.0261 25.0000
v  -25.0000 310.0261 25.0000
v  -25.0000 310.0261 75.0000
v  25.0000 310.0261 25.0000
v  25.0000 310.0261 75.0000
v  75.0000 310.0261 25.0000
v  75.0000 310.0261 75.0000
v  -75.0000 310.0261 -25.0000
v  -25.0000 310.0261 -25.0000
v  25.0000 310.0261 -25.0000
v  75.0000 310.0261 -25.0000
v  -75.0000 310.0261 -75.0000
v  -25.0000 310.0261 -75.0000
v  25.0000 310.0261 -75.0000
v  75.0000 310.0261 -75.0000
v  -75.0000 460.0261 75.0000
v  -25.0000 460.0261 75.0000
v  -25.0000 460.0261 25.0000
v  -75.0000 460.0261 25.0000
v  25.0000 460.0261 75.0000
v  25.0000 460.0261 25.0000
v  75.0000 460.0261 75.0000
v  75.0000 460.0261 25.0000
v  -25.0000 460.0261 -25.0000
v  -75.0000 460.0261 -25.0000
v  25.0000 460.0261 -25.0000
v  75.0000 460.0261 -25.0000
v  -25.0000 460.0261 -75.0000
v  -75.0000 460.0261 -75.0000
v  25.0000 460.0261 -75.0000
v  75.0000 460.0261 -75.0000
v  -25.0000 360.0261 75.0000
v  -75.0000 360.0261 75.0000
v  25.0000 360.0261 75.0000
v  75.0000 360.0261 75.0000
v  -25.0000 410.0261 75.0000
v  -75.0000 410.0261 75.0000
v  25.0000 410.0261 75.0000
v  75.0000 410.0261 75.0000
v  75.0000 360.0261 25.0000
v  75.0000 360.0261 -25.0000
v  75.0000 360.0261 -75.0000
v  75.0000 410.0261 25.0000
v  75.0000 410.0261 -25.0000
v  75.0000 410.0261 -75.0000
v  25.0000 360.0261 -75.0000
v  -25.0000 360.0261 -75.0000
v  -75.0000 360.0261 -75.0000
v  25.0000 410.0261 -75.0000
v  -25.0000 410.0261 -75.0000
v  -75.0000 410.0261 -75.0000
v  -75.0000 360.0261 -25.0000
v  -75.0000 360.0261 25.0000
v  -75.0000 410.0261 -25.0000
v  -75.0000 410.0261 25.0000
# 56 vertices

vn -0.5774 -0.5774 0.5774
vn -0.7071 -0.7071 -0.0000
vn 0.0000 -1.0000 -0.0000
vn 0.0000 -0.7071 0.7071
vn 0.7071 -0.7071 -0.0000
vn 0.5774 -0.5774 0.5774
vn -0.5774 -0.5774 -0.5774
vn 0.0000 -0.7071 -0.7071
vn 0.5774 -0.5774 -0.5774
vn -0.5774 0.5774 0.5774
vn 0.0000 0.7071 0.7071
vn 0.0000 1.0000 -0.0000
vn -0.7071 0.7071 -0.0000
vn 0.5774 0.5774 0.5774
vn 0.7071 0.7071 -0.0000
vn 0.0000 0.7071 -0.7071
vn -0.5774 0.5774 -0.5774
vn 0.5774 0.5774 -0.5774
vn 0.0000 0.0000 1.0000
vn -0.7071 0.0000 0.7071
vn 0.7071 0.0000 0.7071
vn 1.0000 0.0000 -0.0000
vn 0.7071 0.0000 -0.7071
vn 0.0000 0.0000 -1.0000
vn -0.7071 0.0000 -0.7071
vn -1.0000 0.0000 -0.0000
# 26 vertex normals

vt 1.0000 0.0000 0.0000
vt 1.0000 0.3333 0.0000
vt 0.6667 0.3333 0.0000
vt 0.6667 0.0000 0.0000
vt 0.3333 0.3333 0.0000
vt 0.3333 0.0000 0.0000
vt 0.0000 0.3333 0.0000
vt 0.0000 0.0000 0.0000
vt 1.0000 0.6667 0.0000
vt 0.6667 0.6667 0.0000
vt 0.3333 0.6667 0.0000
vt 0.0000 0.6667 0.0000
vt 1.0000 1.0000 0.0000
vt 0.6667 1.0000 0.0000
vt 0.3333 1.0000 0.0000
vt 0.0000 1.0000 0.0000
# 16 texture coords

o Box002
g Box002
usemtl wire_153228153
s 2
f 9/5/9 10/6/10 11/7/11 12/8/12 
f 12/8/12 11/7/11 13/9/11 14/10/12 
f 14/10/12 13/9/11 15/11/13 16/12/14 
f 10/6/10 17/13/10 18/14/11 11/7/11 
f 11/7/11 18/14/11 19/15/11 13/9/11 
f 13/9/11 19/15/11 20/16/13 15/11/13 
f 17/13/10 21/17/15 22/18/16 18/14/11 
f 18/14/11 22/18/16 23/19/16 19/15/11 
f 19/15/11 23/19/16 24/20/17 20/16/13 
s 4
f 25/12/18 26/10/19 27/9/20 28/11/21 
f 26/10/19 29/8/19 30/7/20 27/9/20 
f 29/8/19 31/5/22 32/6/23 30/7/20 
f 28/11/21 27/9/20 33/15/20 34/16/21 
f 27/9/20 30/7/20 35/14/20 33/15/20 
f 30/7/20 32/6/23 36/13/23 35/14/20 
f 34/16/21 33/15/20 37/19/24 38/20/25 
f 33/15/20 35/14/20 39/18/24 37/19/24 
f 35/14/20 36/13/23 40/17/26 39/18/24 
s 8
f 9/12/9 12/10/12 41/9/27 42/11/28 
f 12/10/12 14/8/12 43/7/27 41/9/27 
f 14/8/12 16/5/14 44/6/29 43/7/27 
f 42/11/28 41/9/27 45/15/27 46/16/28 
f 41/9/27 43/7/27 47/14/27 45/15/27 
f 43/7/27 44/6/29 48/13/29 47/14/27 
f 46/16/28 45/15/27 26/19/19 25/20/18 
f 45/15/27 47/14/27 29/18/19 26/19/19 
f 47/14/27 48/13/29 31/17/22 29/18/19 
s 16
f 16/12/14 15/10/13 49/9/30 44/11/29 
f 15/10/13 20/8/13 50/7/30 49/9/30 
f 20/8/13 24/5/17 51/6/31 50/7/30 
f 44/11/29 49/9/30 52/15/30 48/16/29 
f 49/9/30 50/7/30 53/14/30 52/15/30 
f 50/7/30 51/6/31 54/13/31 53/14/30 
f 48/16/29 52/15/30 32/19/23 31/20/22 
f 52/15/30 53/14/30 36/18/23 32/19/23 
f 53/14/30 54/13/31 40/17/26 36/18/23 
s 32
f 24/12/17 23/10/16 55/9/32 51/11/31 
f 23/10/16 22/8/16 56/7/32 55/9/32 
f 22/8/16 21/5/15 57/6/33 56/7/32 
f 51/11/31 55/9/32 58/15/32 54/16/31 
f 55/9/32 56/7/32 59/14/32 58/15/32 
f 56/7/32 57/6/33 60/13/33 59/14/32 
f 54/16/31 58/15/32 39/19/24 40/20/26 
f 58/15/32 59/14/32 37/18/24 39/19/24 
f 59/14/32 60/13/33 38/17/25 37/18/24 
s 64
f 21/12/15 17/10/10 61/9/34 57/11/33 
f 17/10/10 10/8/10 62/7/34 61/9/34 
f 10/8/10 9/5/9 42/6/28 62/7/34 
f 57/11/33 61/9/34 63/15/34 60/16/33 
f 61/9/34 62/7/34 64/14/34 63/15/34 
f 62/7/34 42/6/28 46/13/28 64/14/34 
f 60/16/33 63/15/34 34/19/21 38/20/25 
f 63/15/34 64/14/34 28/18/21 34/19/21 
f 64/14/34 46/13/28 25/17/18 28/18/21 
# 54 polygons

#
# object Box003
#

v  -10.0000 151.0609 10.0000
v  -10.0000 151.0609 -10.0000
v  10.0000 151.0609 -10.0000
v  10.0000 151.0609 10.0000
v  -10.0000 401.0609 10.0000
v  10.0000 401.0609 10.0000
v  10.0000 401.0609 -10.0000
v  -10.0000 401.0609 -10.0000
# 8 vertices

vn -0.5774 -0.5774 0.5774
vn -0.5774 -0.5774 -0.5774
vn 0.5774 -0.5774 -0.5774
vn 0.5774 -0.5774 0.5774
vn -0.5774 0.5774 0.5774
vn 0.5774 0.5774 0.5774
vn 0.5774 0.5774 -0.5774
vn -0.5774 0.5774 -0.5774
# 8 vertex normals

vt 1.0000 0.0000 0.0000
vt 1.0000 1.0000 0.0000
vt 0.0000 1.0000 0.0000
vt 0.0000 0.0000 0.0000
# 4 texture coords

o Box003
g Box003
usemtl wire_184228153
s 2
f 65/21/35 66/22/36 67/23/37 68/24/38 
s 4
f 69/24/39 70/21/40 71/22/41 72/23/42 
s 8
f 65/24/35 68/21/38 70/22/40 69/23/39 
s 16
f 68/24/38 67/21/37 71/22/41 70/23/40 
s 32
f 67/24/37 66/21/36 72/22/42 71/23/41 
s 64
f 66/24/36 65/21/35 69/22/39 72/23/42 
# 6 polygons

#
# object Box004
#

v  -50.0000 169.1672 50.0000
v  -50.0000 169.1672 16.6667
v  -16.6667 169.1672 16.6667
v  -16.6667 169.1672 50.0000
v  16.6667 169.1672 16.6667
v  16.6667 169.1672 50.0000
v  50.0000 169.1672 16.6667
v  50.0000 169.1672 50.0000
v  -50.0000 169.1672 -16.6667
v  -16.6667 169.1672 -16.6667
v  16.6667 169.1672 -16.6667
v  50.0000 169.1672 -16.6667
v  -50.0000 169.1672 -50.0000
v  -16.6667 169.1672 -50.0000
v  16.6667 169.1672 -50.0000
v  50.0000 169.1672 -50.0000
v  -50.0000 269.1672 50.0000
v  -16.6667 269.1672 50.0000
v  -16.6667 269.1672 16.6667
v  -50.0000 269.1672 16.6667
v  16.6667 269.1672 50.0000
v  16.6667 269.1672 16.6667
v  50.0000 269.1672 50.0000
v  50.0000 269.1672 16.6667
v  -16.6667 269.1672 -16.6667
v  -50.0000 269.1672 -16.6667
v  16.6667 269.1672 -16.6667
v  50.0000 269.1672 -16.6667
v  -16.6667 269.1672 -50.0000
v  -50.0000 269.1672 -50.0000
v  16.6667 269.1672 -50.0000
v  50.0000 269.1672 -50.0000
v  -16.6667 202.5005 50.0000
v  -50.0000 202.5005 50.0000
v  16.6667 202.5005 50.0000
v  50.0000 202.5005 50.0000
v  -16.6667 235.8339 50.0000
v  -50.0000 235.8339 50.0000
v  16.6667 235.8339 50.0000
v  50.0000 235.8339 50.0000
v  50.0000 202.5005 16.6667
v  50.0000 202.5005 -16.6667
v  50.0000 202.5005 -50.0000
v  50.0000 235.8339 16.6667
v  50.0000 235.8339 -16.6667
v  50.0000 235.8339 -50.0000
v  16.6667 202.5005 -50.0000
v  -16.6667 202.5005 -50.0000
v  -50.0000 202.5005 -50.0000
v  16.6667 235.8339 -50.0000
v  -16.6667 235.8339 -50.0000
v  -50.0000 235.8339 -50.0000
v  -50.0000 202.5005 -16.6667
v  -50.0000 202.5005 16.6667
v  -50.0000 235.8339 -16.6667
v  -50.0000 235.8339 16.6667
# 56 vertices

vn -0.5774 -0.5774 0.5774
vn -0.7071 -0.7071 -0.0000
vn 0.0000 -1.0000 -0.0000
vn 0.0000 -0.7071 0.7071
vn 0.7071 -0.7071 -0.0000
vn 0.5774 -0.5774 0.5774
vn -0.5774 -0.5774 -0.5774
vn 0.0000 -0.7071 -0.7071
vn 0.5774 -0.5774 -0.5774
vn -0.5774 0.5774 0.5774
vn 0.0000 0.7071 0.7071
vn 0.0000 1.0000 -0.0000
vn -0.7071 0.7071 -0.0000
vn 0.5774 0.5774 0.5774
vn 0.7071 0.7071 -0.0000
vn 0.0000 0.7071 -0.7071
vn -0.5774 0.5774 -0.5774
vn 0.5774 0.5774 -0.5774
vn 0.0000 0.0000 1.0000
vn -0.7071 0.0000 0.7071
vn 0.7071 -0.0000 0.7071
vn 0.7071 0.0000 0.7071
vn 1.0000 -0.0000 -0.0000
vn 0.7071 -0.0000 -0.7071
vn 1.0000 0.0000 -0.0000
vn 0.7071 0.0000 -0.7071
vn 0.0000 -0.0000 -1.0000
vn -0.7071 -0.0000 -0.7071
vn 0.0000 0.0000 -1.0000
vn -0.7071 0.0000 -0.7071
vn -1.0000 0.0000 -0.0000
# 31 vertex normals

vt 1.0000 0.0000 0.0000
vt 1.0000 0.3333 0.0000
vt 0.6667 0.3333 0.0000
vt 0.6667 0.0000 0.0000
vt 0.3333 0.3333 0.0000
vt 0.3333 0.0000 0.0000
vt 0.0000 0.3333 0.0000
vt 0.0000 0.0000 0.0000
vt 1.0000 0.6667 0.0000
vt 0.6667 0.6667 0.0000
vt 0.3333 0.6667 0.0000
vt 0.0000 0.6667 0.0000
vt 1.0000 1.0000 0.0000
vt 0.6667 1.0000 0.0000
vt 0.3333 1.0000 0.0000
vt 0.0000 1.0000 0.0000
# 16 texture coords

o Box004
g Box004
usemtl wire_228184153
s 2
f 73/25/43 74/26/44 75/27/45 76/28/46 
f 76/28/46 75/27/45 77/29/45 78/30/46 
f 78/30/46 77/29/45 79/31/47 80/32/48 
f 74/26/44 81/33/44 82/34/45 75/27/45 
f 75/27/45 82/34/45 83/35/45 77/29/45 
f 77/29/45 83/35/45 84/36/47 79/31/47 
f 81/33/44 85/37/49 86/38/50 82/34/45 
f 82/34/45 86/38/50 87/39/50 83/35/45 
f 83/35/45 87/39/50 88/40/51 84/36/47 
s 4
f 89/32/52 90/30/53 91/29/54 92/31/55 
f 90/30/53 93/28/53 94/27/54 91/29/54 
f 93/28/53 95/25/56 96/26/57 94/27/54 
f 92/31/55 91/29/54 97/35/54 98/36/55 
f 91/29/54 94/27/54 99/34/54 97/35/54 
f 94/27/54 96/26/57 100/33/57 99/34/54 
f 98/36/55 97/35/54 101/39/58 102/40/59 
f 97/35/54 99/34/54 103/38/58 101/39/58 
f 99/34/54 100/33/57 104/37/60 103/38/58 
s 8
f 73/32/43 76/30/46 105/29/61 106/31/62 
f 76/30/46 78/28/46 107/27/61 105/29/61 
f 78/28/46 80/25/48 108/26/63 107/27/61 
f 106/31/62 105/29/61 109/35/61 110/36/62 
f 105/29/61 107/27/61 111/34/61 109/35/61 
f 107/27/61 108/26/63 112/33/64 111/34/61 
f 110/36/62 109/35/61 90/39/53 89/40/52 
f 109/35/61 111/34/61 93/38/53 90/39/53 
f 111/34/61 112/33/64 95/37/56 93/38/53 
s 16
f 80/32/48 79/30/47 113/29/65 108/31/63 
f 79/30/47 84/28/47 114/27/65 113/29/65 
f 84/28/47 88/25/51 115/26/66 114/27/65 
f 108/31/63 113/29/65 116/35/67 112/36/64 
f 113/29/65 114/27/65 117/34/67 116/35/67 
f 114/27/65 115/26/66 118/33/68 117/34/67 
f 112/36/64 116/35/67 96/39/57 95/40/56 
f 116/35/67 117/34/67 100/38/57 96/39/57 
f 117/34/67 118/33/68 104/37/60 100/38/57 
s 32
f 88/32/51 87/30/50 119/29/69 115/31/66 
f 87/30/50 86/28/50 120/27/69 119/29/69 
f 86/28/50 85/25/49 121/26/70 120/27/69 
f 115/31/66 119/29/69 122/35/71 118/36/68 
f 119/29/69 120/27/69 123/34/71 122/35/71 
f 120/27/69 121/26/70 124/33/72 123/34/71 
f 118/36/68 122/35/71 103/39/58 104/40/60 
f 122/35/71 123/34/71 101/38/58 103/39/58 
f 123/34/71 124/33/72 102/37/59 101/38/58 
s 64
f 85/32/49 81/30/44 125/29/73 121/31/70 
f 81/30/44 74/28/44 126/27/73 125/29/73 
f 74/28/44 73/25/43 106/26/62 126/27/73 
f 121/31/70 125/29/73 127/35/73 124/36/72 
f 125/29/73 126/27/73 128/34/73 127/35/73 
f 126/27/73 106/26/62 110/33/62 128/34/73 
f 124/36/72 127/35/73 98/39/55 102/40/59 
f 127/35/73 128/34/73 92/38/55 98/39/55 
f 128/34/73 110/33/62 89/37/52 92/38/55 
# 54 polygons

